<?xml version="1.0" encoding="UTF-8" standalone="no"?>
<svg xmlns="http://www.w3.org/2000/svg" version="1.1" width="4295.9443" height="1222.9999"
   viewBox="0 0 1136.6355 323.58539">
   <image src="logo.svg" y="0" x="0" width="379.67709" height="323.58542" />
   <path style="stroke-width:5.48147" id="path10" fill="#000000"
      d="m 1037.8028,118.48049 v 14.50307 h 0.7735 q 6.188,-7.34823 13.7295,-11.21571 7.735,-4.06087 17.5971,-4.06087 14.8899,0 26.2989,6.96148 11.4091,6.7681 17.9838,18.95069 6.5748,11.9892 6.5748,27.45915 0,15.46994 -6.7682,27.45915 -6.5747,11.9892 -17.9837,18.7573 -11.4091,6.7681 -25.9122,6.7681 -9.282,0 -16.6302,-3.09398 -7.3483,-3.28736 -13.1495,-10.05547 v 28.03928 q 0,10.24883 1.547,15.27656 1.7404,5.02774 6.5748,6.7681 4.8343,1.74036 14.503,2.12711 v 7.34825 h -62.6532 v -7.34825 q 7.3482,-0.38676 11.0223,-2.12711 3.8675,-1.74036 5.2211,-6.57472 1.547,-4.83435 1.547,-14.11632 v -72.12861 q 0,-10.24885 -0.3865,-17.79044 -0.387,-7.73498 -0.9668,-10.44221 -0.7735,-4.64099 -4.4477,-6.18799 -3.4807,-1.74036 -12.37592,-1.74036 v -6.96148 z m 8.5084,20.49767 q -2.7072,4.06086 -4.2542,10.05546 -1.547,5.80123 -1.547,13.92296 v 14.30969 q 0,8.70185 1.3536,14.3097 1.5471,5.41448 4.641,9.66872 4.0609,5.60785 9.8621,8.70184 5.8012,3.09399 12.376,3.09399 12.5693,0 19.7241,-10.63559 7.1549,-10.63559 7.1549,-30.74651 0,-13.72958 -3.2874,-23.59167 -3.2873,-9.86209 -9.4753,-15.08319 -6.188,-5.22111 -14.6965,-5.22111 -6.5747,0 -12.3759,3.09399 -5.8012,2.90061 -9.4754,8.12172 z m -202.23436,26.87903 v 24.94528 q 0,10.63559 0.77349,15.66332 0.96688,5.02773 4.44762,6.57473 3.48073,1.35362 10.82896,1.93375 v 7.15484 h -55.69179 v -7.15484 q 7.54156,-0.58013 11.0223,-2.12712 3.67411,-1.547 4.83437,-6.18798 1.16028,-4.64098 1.16028,-14.3097 v -24.36516 q 0,-11.02234 -0.387,-18.37056 -0.1935,-7.5416 -0.96688,-10.05546 -1.1602,-5.02774 -4.06083,-6.38136 -2.90063,-1.35362 -11.98924,-1.35362 v -6.7681 l 34.03391,-7.34823 2.51385,18.17719 h 0.96688 q 8.50845,-9.47534 17.40368,-13.72957 9.08861,-4.44762 20.3043,-4.44762 12.37594,0 20.69102,4.83436 8.5085,4.64099 12.18264,13.53621 h 0.77348 q 6.96148,-8.70185 17.01692,-13.53621 10.05547,-4.83436 21.27118,-4.83436 10.05548,0 17.98383,3.09399 8.12168,2.90062 12.5693,8.12173 3.48072,4.4476 5.02777,11.79583 1.74036,7.15485 1.74036,19.72418 v 30.35976 q 0,10.63559 0.96687,15.66332 1.16021,4.83436 4.64095,6.38136 3.48073,1.54699 10.82894,2.12712 v 7.15484 h -55.69179 v -7.15484 q 7.54165,-0.38678 11.02237,-1.93375 3.48075,-1.547 4.44762,-6.18798 1.16022,-4.83435 1.16022,-14.50307 v -24.75191 q 0,-21.46455 -5.02772,-29.97302 -4.83433,-8.50847 -17.01696,-8.50847 -7.73497,0 -13.92294,4.25423 -5.9946,4.06087 -9.66871,10.63559 -1.35361,2.70725 -2.32048,5.80123 -0.77349,3.09399 -1.35364,6.96148 -0.387,3.67411 -0.387,9.08859 v 24.94528 q 0,10.63559 0.96687,15.66332 0.96688,4.83436 4.44762,6.38136 3.48073,1.54699 11.21569,2.12712 v 7.15484 H 876.95 v -7.15484 q 7.54159,-0.58013 11.02231,-2.12712 3.67411,-1.547 4.641,-6.18798 0.96688,-4.64098 0.96688,-14.3097 v -24.75191 q 0,-14.50307 -2.12714,-22.81817 -2.12714,-8.3151 -6.96146,-11.98921 -4.8344,-3.67411 -13.14948,-3.67411 -7.54157,0 -13.72954,4.06086 -6.18798,4.06086 -9.47539,10.82896 -1.3536,2.70725 -2.32047,5.80123 -0.96687,2.90062 -1.35365,6.7681 -0.38645,3.86749 -0.38645,9.28197 z m -87.69529,16.63019 v -16.63019 q -19.53077,7.92835 -28.03927,15.27657 -8.50845,7.15485 -8.50845,14.88982 0,5.99461 3.67413,9.66872 3.86744,3.67411 9.66872,3.67411 6.57468,0 11.7958,-3.48074 5.2211,-3.67411 8.3151,-9.86209 3.09397,-6.18798 3.09397,-13.5362 z m -27.65249,-13.72958 27.65249,-12.18258 v -7.92834 q 0,-11.60246 -4.64094,-17.01694 -4.44762,-5.60786 -13.72961,-5.60786 -6.18799,0 -9.08855,2.70724 -2.70725,2.70724 -5.22111,10.05547 -2.12714,5.02773 -4.641,7.34822 -2.51386,2.3205 -7.15485,2.3205 -5.02771,0 -7.73496,-2.90062 -2.70725,-2.90062 -2.70725,-8.12172 0,-9.0886 10.05542,-14.3097 10.0555,-5.41449 29.19953,-5.41449 20.6911,0 29.19955,7.34823 8.50846,7.15485 8.50846,24.55854 v 42.92909 q 0,19.53081 7.735,19.53081 2.32048,0 4.44762,-0.58013 2.12708,-0.77349 3.86745,-2.90061 l 2.70724,5.02773 q -2.32047,4.64099 -8.50845,7.5416 -5.99458,2.90061 -12.76274,2.90061 -8.70183,0 -13.14945,-5.41447 -4.44761,-5.41449 -4.44761,-15.27658 h -0.96687 q -5.02771,9.66872 -14.11631,15.0832 -8.89524,5.41448 -19.91756,5.41448 -11.98919,0 -19.33742,-6.57473 -7.15485,-6.57472 -7.15485,-17.01693 0,-9.0886 7.15485,-16.63019 7.15485,-7.54161 24.75192,-14.88983 z m -89.81492,-37.70798 h -12.76273 v -7.73498 q 10.82898,-4.83435 17.59705,-11.02233 6.76815,-6.38136 10.24887,-14.889826 h 7.54159 V 121.3811 h 24.17174 v 9.66872 h -24.17174 v 59.17253 q 0,12.76271 2.70725,17.98381 2.70724,5.02773 9.66871,5.02773 4.44762,0 7.54158,-1.74037 3.28738,-1.93374 5.80127,-6.18798 l 4.44759,4.44762 q -5.41449,14.30969 -25.71879,14.30969 -12.95606,0 -20.11093,-6.18797 -6.96146,-6.18798 -6.96146,-17.40369 z m -78.01024,84.31119 -3.86745,6.7681 h -5.02779 v -34.03388 h 6.18801 q 3.67411,13.72958 10.05548,20.30431 6.5747,6.57473 16.6302,6.57473 7.34822,0 11.60246,-3.28737 4.44759,-3.48074 4.44759,-10.05547 0,-3.86748 -1.93374,-6.7681 -1.93376,-3.09399 -6.57476,-6.38135 -4.64095,-3.48074 -13.14944,-8.50847 -9.08857,-5.60785 -15.08321,-10.24883 -5.8012,-4.83436 -8.70183,-10.05547 -2.90059,-5.2211 -2.90059,-12.18258 0,-8.89522 3.86745,-15.46994 4.06091,-6.7681 10.829,-10.44222 6.76808,-3.86749 15.27659,-3.86749 5.60782,0 11.40908,1.74038 5.8012,1.54699 10.05543,4.4476 l 3.67411,-4.25423 h 4.25425 v 28.42602 h -6.18799 q -4.25423,-11.60246 -9.28194,-16.43681 -4.83439,-5.02774 -11.98925,-5.02774 -5.9946,0 -9.66871,3.28737 -3.48073,3.28736 -3.48073,8.89522 0,5.80123 4.641,10.24883 4.64098,4.44762 14.88979,10.44221 11.02238,6.38136 17.59709,11.60247 6.57474,5.2211 9.47531,10.82895 3.09403,5.41449 3.09403,12.76271 0,13.34283 -9.28201,21.46455 -9.08856,7.92834 -24.17175,7.92834 -7.92835,0 -14.88982,-2.12711 -6.76808,-2.32049 -11.79586,-6.57473 z M 440.92333,97.402015 c -2.32047,5.672305 -5.73641,10.636895 -10.24849,14.891135 -4.51207,4.12532 -10.37697,7.79886 -17.59629,11.02176 v 7.73591 h 12.76384 v 69.41926 c 0,7.47714 2.31876,13.27835 6.95976,17.40367 4.76992,4.12531 11.47426,6.1893 20.11169,6.1893 13.53617,0 22.10777,-4.77065 25.71743,-14.31045 l -4.44723,-4.44723 c -1.67591,2.83616 -3.60965,4.90014 -5.8012,6.1893 -2.06269,1.16024 -4.57544,1.73923 -7.54049,1.73923 -4.64099,0 -7.86295,-1.67609 -9.66772,-5.02792 -1.80484,-3.48074 -2.70802,-9.47589 -2.70802,-17.98436 v -59.1708 h 57.34377 l -25.28122,34.3853 1.41916,10.7045 c 0.76775,-0.0444 1.51837,-0.2266 2.29159,-0.2266 9.66877,0 17.0823,3.73724 22.23895,11.21437 5.15663,7.47715 7.73594,18.24294 7.73594,32.29481 0,13.27837 -2.25798,23.39865 -6.77,30.36013 -4.51209,7.09039 -10.95593,10.63368 -19.33552,10.63368 -2.32047,0 -4.32076,-0.32132 -5.99666,-0.96592 -1.6759,-0.5157 -3.28544,-1.54623 -4.83247,-3.09323 -1.67591,-1.41807 -3.54601,-3.60946 -5.60865,-6.57453 -2.32049,-3.35182 -4.38446,-5.67344 -6.1893,-6.9626 -1.93376,-1.28917 -4.18883,-1.93186 -6.76714,-1.93186 -3.35182,0 -5.93108,0.90034 -7.73591,2.70516 -1.93375,1.80483 -2.90062,4.25384 -2.90062,7.34783 0,3.73858 1.61237,7.09079 4.83531,10.05584 3.09397,2.96509 7.41303,5.28672 12.95645,6.96262 5.54342,1.67591 11.92364,2.51253 19.1429,2.51253 10.82899,0 20.37024,-2.25509 28.6209,-6.76715 8.12168,-4.38316 14.50189,-10.63595 19.1429,-18.75767 4.51208,-7.99282 6.76714,-17.40386 6.76714,-28.23282 0,-10.44222 -2.06114,-19.59563 -6.18643,-27.4595 -4.12536,-7.73498 -9.86287,-13.79384 -17.21106,-18.177 -3.01679,-1.76844 -6.22081,-3.16287 -9.59411,-4.21778 l 30.79918,-42.96532 v -2.51537 h -88.8851 V 97.402015 Z" />
</svg>
