<?xml version="1.0" standalone="no"?>
<!DOCTYPE svg PUBLIC "-//W3C//DTD SVG 20010904//EN"
 "http://www.w3.org/TR/2001/REC-SVG-20010904/DTD/svg10.dtd">
<svg version="1.0" xmlns="http://www.w3.org/2000/svg"
 width="1435.000000pt" height="1435.000000pt" viewBox="0 0 1435.000000 1435.000000"
 preserveAspectRatio="xMidYMid meet">
<metadata>
Created by potrace 1.14, written by Peter Selinger 2001-2017
</metadata>
<g transform="translate(0.000000,1435.000000) scale(0.100000,-0.100000)"
fill="#000000" stroke="none">
<path d="M7556 12479 c-36 -10 -86 -57 -86 -80 0 -11 -11 -19 -33 -23 -35 -7
-81 -48 -90 -81 -12 -41 -18 -103 -22 -203 -4 -104 6 -152 39 -175 7 -5 2 -14
-16 -28 -15 -11 -32 -35 -38 -54 -10 -32 -12 -33 -43 -24 -62 19 -170 18 -252
-1 -77 -19 -81 -19 -105 -1 -123 89 -321 122 -470 78 -41 -13 -100 -39 -131
-60 l-56 -37 -76 17 c-69 15 -77 19 -89 47 -23 56 -128 205 -186 264 -64 65
-153 134 -227 177 -27 16 -52 30 -55 31 -3 0 -25 10 -50 21 -165 74 -407 100
-589 62 -105 -21 -150 -35 -236 -74 -60 -26 -149 -79 -173 -102 -7 -7 -17 -13
-21 -13 -12 0 -144 -131 -177 -175 -16 -22 -36 -48 -44 -57 -42 -46 -130 -243
-144 -322 -3 -14 -7 -34 -10 -44 -14 -45 -18 -86 -22 -192 -7 -225 70 -461
208 -640 71 -90 144 -158 249 -230 50 -34 89 -63 87 -65 -2 -2 -30 -6 -63 -9
-67 -8 -93 -12 -180 -27 -33 -6 -73 -13 -90 -16 -16 -2 -70 -14 -120 -25 -49
-11 -97 -21 -106 -23 -89 -19 -447 -125 -509 -152 -8 -3 -17 -7 -20 -8 -3 -1
-14 -5 -25 -10 -11 -4 -42 -17 -70 -27 -27 -11 -63 -26 -80 -33 -16 -8 -59
-27 -95 -43 -75 -34 -228 -108 -250 -122 -8 -5 -64 -37 -125 -71 -196 -110
-447 -284 -640 -444 -172 -142 -441 -411 -555 -554 -19 -25 -40 -49 -45 -55
-6 -6 -24 -29 -40 -51 -17 -22 -32 -42 -36 -45 -18 -17 -259 -365 -259 -376 0
-2 -15 -27 -33 -56 -77 -121 -210 -383 -269 -528 -6 -14 -14 -33 -19 -43 -12
-22 -53 -130 -54 -139 0 -3 -3 -10 -7 -14 -5 -4 -8 -13 -8 -20 0 -7 -5 -25
-12 -41 -6 -15 -12 -30 -13 -33 0 -3 -18 -59 -38 -125 -20 -66 -41 -133 -46
-150 -23 -75 -81 -345 -105 -490 -16 -94 -36 -253 -43 -345 -15 -196 -8 -703
11 -807 2 -10 7 -45 10 -78 37 -333 158 -800 298 -1144 51 -127 180 -394 235
-486 16 -27 32 -57 36 -65 4 -8 16 -28 27 -45 11 -16 23 -36 27 -44 30 -64
251 -372 361 -506 170 -205 479 -511 627 -621 42 -31 70 -53 89 -69 31 -27
142 -107 251 -179 159 -106 158 -105 175 -113 8 -3 26 -14 40 -23 70 -47 328
-178 503 -255 71 -31 312 -121 360 -135 33 -9 46 -17 43 -26 -4 -11 -1 -11 13
-2 14 9 26 8 52 -3 19 -7 36 -14 39 -14 17 -2 117 -29 125 -34 6 -3 15 -6 20
-7 27 -5 72 -13 90 -18 344 -81 612 -111 1000 -111 277 0 412 9 630 42 22 3
49 7 60 8 72 10 110 17 131 25 15 6 26 6 30 -1 5 -8 8 -8 13 -1 4 6 22 14 41
17 86 15 358 88 495 133 327 108 584 227 914 423 149 87 443 303 597 436 107
92 357 341 439 438 33 38 65 75 70 81 6 6 21 26 35 44 14 18 30 38 35 44 6 6
40 52 76 101 364 500 587 966 734 1538 34 132 40 146 54 133 13 -12 44 -22 96
-32 6 -1 53 -5 105 -8 102 -8 138 0 178 36 12 12 22 17 22 11 0 -20 51 -61 83
-67 38 -7 128 -16 212 -21 33 -2 96 -13 140 -25 44 -11 118 -22 165 -24 72 -3
93 -8 140 -33 106 -58 304 -92 410 -70 65 13 129 32 166 48 32 13 51 15 80 9
22 -5 82 -10 135 -11 79 -1 105 3 145 20 43 19 50 20 60 7 27 -37 134 -60 286
-60 55 0 72 4 100 26 l33 25 23 -28 c13 -16 40 -33 60 -38 41 -11 162 -23 229
-23 62 0 123 41 127 86 1 5 16 14 35 21 75 25 95 65 107 215 3 36 7 82 9 103
4 47 -16 116 -38 132 -15 11 -14 16 18 49 19 21 35 41 35 46 0 5 26 36 58 68
63 63 124 159 143 223 8 25 24 48 43 61 119 81 240 270 261 408 7 52 24 100
35 100 12 0 78 103 108 170 39 85 58 176 61 280 1 47 6 87 11 90 4 3 26 39 48
80 67 124 101 297 80 408 -7 40 -5 49 22 90 28 42 67 134 76 175 2 10 5 26 8
35 23 77 24 210 0 304 -14 61 -15 71 -1 110 62 174 51 378 -30 536 -28 55 -31
68 -31 153 2 257 -134 492 -338 586 -29 13 -59 34 -68 48 -24 37 -78 87 -145
134 l-33 24 7 -24 c7 -23 6 -22 -15 4 l-22 28 30 30 c28 28 42 65 47 134 1 17
6 69 9 116 8 90 -3 139 -37 167 -13 11 -11 17 17 45 38 37 41 51 61 266 6 64
-7 118 -34 148 -19 20 -19 21 14 53 40 39 52 101 57 282 1 70 -1 81 -25 115
-26 36 -26 38 -8 47 34 15 57 84 66 196 13 170 7 205 -37 240 -19 16 -19 16 4
29 38 20 53 50 63 126 29 231 20 291 -52 325 -19 9 -34 25 -38 40 -17 68 -67
99 -169 106 -34 2 -78 6 -100 10 -49 7 -129 -12 -151 -36 -16 -18 -18 -17 -43
11 -29 33 -67 44 -177 55 -131 12 -169 7 -208 -30 l-25 -23 -12 21 c-26 50
-92 67 -272 70 -90 1 -98 -1 -123 -24 -23 -22 -28 -23 -36 -9 -24 44 -115 68
-266 71 -78 1 -125 -13 -144 -43 -5 -9 -15 -4 -33 18 -34 40 -91 54 -233 56
-115 2 -163 -10 -163 -42 0 -9 -11 -2 -28 19 -16 18 -35 35 -43 37 -50 11
-135 22 -200 26 -77 5 -145 -13 -163 -42 -5 -7 -16 -1 -31 18 -29 34 -76 48
-200 56 -49 4 -92 8 -93 10 -8 8 -86 -27 -103 -46 l-18 -20 -12 23 c-22 41
-43 51 -144 63 -153 18 -212 13 -252 -25 l-22 -20 -18 26 c-25 34 -82 51 -194
59 -52 4 -96 8 -99 8 -19 3 -79 -18 -96 -34 -20 -19 -21 -19 -40 2 -30 33 -69
49 -131 54 -32 3 -82 8 -111 11 -70 8 -115 -1 -150 -31 l-29 -24 -13 23 c-18
35 -73 54 -175 62 -49 3 -98 8 -107 10 -30 5 -92 -17 -112 -39 l-18 -22 -22
27 c-30 39 -89 56 -215 63 -91 5 -116 3 -145 -10 -19 -9 -37 -24 -41 -33 -5
-12 -12 -9 -35 20 -19 23 -42 38 -62 42 -99 18 -235 26 -272 15z m-2253 -606
c6 -5 29 -15 50 -22 85 -29 198 -131 240 -217 l19 -41 -29 -64 c-58 -123 -68
-255 -26 -336 16 -31 18 -42 9 -55 -11 -15 -16 -12 -49 22 -53 57 -82 62 -360
58 -233 -3 -243 -4 -279 -26 -21 -13 -46 -37 -55 -53 -10 -16 -21 -29 -25 -29
-8 0 -70 104 -75 125 -1 5 -10 35 -18 65 -32 111 -6 261 62 365 71 109 162
176 284 209 58 16 229 15 252 -1z m1338 -328 c26 -6 26 -7 13 -43 -7 -20 -13
-47 -14 -60 0 -18 -5 -23 -22 -20 -18 2 -25 13 -35 53 -22 90 -24 87 58 70z
m558 -86 c17 -6 31 -13 31 -15 0 -3 -65 -91 -77 -104 -11 -11 -20 26 -12 47 5
14 9 38 9 54 0 32 4 34 49 18z m-687 -377 c46 -10 115 -17 153 -16 66 2 89 5
157 19 19 5 43 -2 80 -23 50 -27 127 -56 176 -67 12 -3 32 -7 45 -10 12 -2 34
-7 50 -11 32 -7 61 -55 53 -88 -8 -33 -21 -196 -19 -250 1 -34 9 -59 26 -83
l24 -34 -32 -32 c-27 -27 -34 -44 -40 -93 -4 -32 -9 -72 -11 -89 -2 -16 -4
-62 -5 -102 -1 -58 3 -79 20 -107 12 -19 27 -37 34 -39 7 -3 0 -8 -14 -12 -20
-5 -48 4 -118 40 -188 94 -504 211 -741 274 -187 50 -456 106 -555 116 -53 5
-129 17 -148 22 -13 3 -5 11 29 29 147 78 318 256 399 415 21 40 30 48 62 54
77 14 173 47 225 79 29 18 56 31 60 29 4 -2 45 -12 90 -21z m6696 -2197 c-2
-2 -19 -7 -37 -10 -18 -3 -49 -12 -67 -20 -29 -12 -34 -12 -34 0 0 7 15 24 33
37 17 12 41 33 52 45 l20 22 18 -35 c10 -20 17 -37 15 -39z m107 -487 c2 -7 6
-25 9 -40 5 -27 4 -28 -52 -27 -31 1 -63 -1 -71 -3 -10 -2 -15 8 -16 34 -3 40
-3 40 83 46 28 2 44 -2 47 -10z m-17 -593 c3 -46 2 -47 -20 -40 -13 3 -44 11
-70 17 -50 11 -50 12 -34 69 7 25 8 25 64 14 l57 -11 3 -49z m-123 -505 c9 0
9 -80 -1 -80 -1 0 -13 4 -26 10 -13 5 -42 14 -65 20 -43 11 -45 16 -25 66 l13
31 47 -23 c26 -13 52 -24 57 -24z m-186 -515 c45 -22 51 -29 45 -48 -9 -31 -9
-30 -43 -13 -16 9 -38 16 -48 16 -36 0 -48 16 -35 44 14 32 16 32 81 1z m-179
-543 c-13 -5 -80 45 -80 58 0 5 20 -5 46 -23 25 -17 40 -33 34 -35z"/>
</g>
</svg>
